<svg width="122" height="28" viewBox="0 0 122 28" fill="none" xmlns="http://www.w3.org/2000/svg">
<path d="M93.5527 27.2761V20.9902H95.6099C97.8166 20.9902 98.9067 22.1859 98.9067 24.0672V24.1376C98.9067 26.0189 97.8078 27.2761 95.6011 27.2761H93.5527ZM94.9769 26.1684H95.5572C96.8232 26.1684 97.421 25.4563 97.421 24.1551V24.0848C97.421 22.7925 96.8671 22.0979 95.5396 22.0979H94.9769V26.1684Z" fill="#FFFFF7"/>
<path d="M87.8867 27.2761V20.9902H91.9835V22.0979H89.3021V23.5661H91.4473V24.6035H89.3021V26.1684H92.1242V27.2761H87.8867Z" fill="#FFFFF7"/>
<path d="M83.4579 27.3728C81.4007 27.3728 80.2578 26.0365 80.2578 24.1727V24.1024C80.2578 22.2122 81.6029 20.8935 83.4579 20.8935C84.8557 20.8935 86.1041 21.5353 86.2536 23.0914H84.8382C84.7151 22.3529 84.2315 22.0188 83.4755 22.0188C82.3853 22.0188 81.7436 22.8364 81.7436 24.12V24.1903C81.7436 25.4035 82.2623 26.2739 83.4931 26.2739C84.548 26.2739 84.9788 25.6673 85.0052 24.9464H83.5898V23.909H86.4118V24.5771C86.4118 26.2563 85.3393 27.3728 83.4579 27.3728Z" fill="#FFFFF7"/>
<path d="M76.161 27.3728C74.1038 27.3728 72.9609 26.0365 72.9609 24.1727V24.1024C72.9609 22.2122 74.306 20.8935 76.161 20.8935C77.5589 20.8935 78.8072 21.5353 78.9567 23.0914H77.5413C77.4182 22.3529 76.9347 22.0188 76.1786 22.0188C75.0885 22.0188 74.4467 22.8364 74.4467 24.12V24.1903C74.4467 25.4035 74.9654 26.2739 76.1962 26.2739C77.2512 26.2739 77.6819 25.6673 77.7083 24.9464H76.2929V23.909H79.1149V24.5771C79.1149 26.2563 78.0424 27.3728 76.161 27.3728Z" fill="#FFFFF7"/>
<path d="M66.3613 27.2761L68.4273 20.9902H70.2823L72.3219 27.2761H70.8362L70.4054 25.8783H68.1284L67.6976 27.2761H66.3613ZM69.2713 22.1507L68.4361 24.8672H70.0977L69.2713 22.1507Z" fill="#FFFFF7"/>
<path d="M60.5098 27.2761V20.9902H62.7604C64.2461 20.9902 65.1868 21.5968 65.1868 22.898V22.9331C65.1868 23.8826 64.633 24.3837 63.8945 24.6035L65.5561 27.2761H64.0439L62.5406 24.8497H61.9252V27.2761H60.5098ZM61.9252 23.8826H62.7252C63.4373 23.8826 63.7978 23.5837 63.7978 22.9771V22.9419C63.7978 22.3001 63.4109 22.0804 62.7252 22.0804H61.9252V23.8826Z" fill="#FFFFF7"/>
<path d="M51.0176 27.2761V20.9902H52.6704L55.0616 25.131V20.9902H56.3276V27.2761H54.9034L52.2835 22.8013V27.2761H51.0176Z" fill="#FFFFF7"/>
<path d="M46.6189 27.3728C44.9661 27.3728 44.0254 26.4937 44.0254 24.8233V20.9902H45.4584V24.7354C45.4584 25.7816 45.7661 26.2387 46.6277 26.2387C47.4716 26.2387 47.8409 25.8343 47.8409 24.6826V20.9902H49.2739V24.7705C49.2739 26.4849 48.3156 27.3728 46.6189 27.3728Z" fill="#FFFFF7"/>
<path d="M37.8281 27.2761V20.9902H40.0787C41.5645 20.9902 42.5052 21.5968 42.5052 22.898V22.9331C42.5052 23.8826 41.9513 24.3837 41.2128 24.6035L42.8744 27.2761H41.3623L39.8589 24.8497H39.2435V27.2761H37.8281ZM39.2435 23.8826H40.0436C40.7557 23.8826 41.1161 23.5837 41.1161 22.9771V22.9419C41.1161 22.3001 40.7293 22.0804 40.0436 22.0804H39.2435V23.8826Z" fill="#FFFFF7"/>
<path d="M30.8111 27.2761V24.5683L28.7363 20.9902H30.3012L31.576 23.3991L32.8243 20.9902H34.2046L32.2441 24.5683V27.2761H30.8111Z" fill="#FFFFF7"/>
<path d="M23.2871 27.2761V20.9902H25.7575C27.129 20.9902 27.8411 21.5529 27.8411 22.6254V22.6606C27.8411 23.32 27.5246 23.8035 26.8213 24.0057C27.6389 24.1727 28.0784 24.6387 28.0784 25.4826V25.5178C28.0784 26.6695 27.3224 27.2761 25.8718 27.2761H23.2871ZM24.6762 23.5749H25.5289C26.2147 23.5749 26.4872 23.3287 26.4872 22.7661V22.7309C26.4872 22.2034 26.1883 21.9661 25.5201 21.9661H24.6762V23.5749ZM24.6762 26.2915H25.652C26.3553 26.2915 26.6718 25.975 26.6718 25.4035V25.3684C26.6718 24.7881 26.3553 24.4892 25.5817 24.4892H24.6762V26.2915Z" fill="#FFFFF7"/>
<path d="M112.387 14.0381V0.559311H121.699V3.53783H116.232V5.85655H120.587V8.60886H116.232V11.0595H122.001V14.0381H112.387Z" fill="#FFFFF7"/>
<path d="M104.259 14.0381V3.53783H100.771V0.559311H111.63V3.53783H108.142V14.0381H104.259Z" fill="#FFFFF7"/>
<path d="M96.0664 14.0381V0.559311H99.9686V14.0381H96.0664Z" fill="#FFFFF7"/>
<path d="M88.4193 14.2643C84.6113 14.2643 82.4434 12.3414 82.4434 8.57115V0.559311H86.3079V8.40149C86.3079 10.3055 86.7792 11.2292 88.4193 11.2292C90.0216 11.2292 90.5306 10.362 90.5306 8.34494V0.559311H94.4328V8.5146C94.4328 12.4357 92.133 14.2643 88.4193 14.2643Z" fill="#FFFFF7"/>
<path d="M76.359 14.2646C72.5887 14.2646 70.6658 12.6811 70.5527 9.75909H74.2288C74.323 10.7205 74.7566 11.5123 76.359 11.5123C77.4712 11.5123 78.0933 10.9656 78.0933 10.1738C78.0933 9.34436 77.5843 9.11814 75.9631 8.87307C72.1551 8.42064 70.8732 7.28955 70.8732 4.57495C70.8732 2.14312 72.8715 0.371094 76.095 0.371094C79.3375 0.371094 81.1661 1.72839 81.4111 4.57495H77.8294C77.6974 3.61353 77.1507 3.1234 76.095 3.1234C75.0582 3.1234 74.5304 3.59468 74.5304 4.27333C74.5304 5.02739 74.9451 5.36671 76.6229 5.59293C80.035 5.96996 81.7882 6.85597 81.7882 9.77794C81.7882 12.2475 79.8276 14.2646 76.359 14.2646Z" fill="#FFFFF7"/>
<path d="M57.2891 14.0381V0.559311H62.4166C66.1115 0.559311 67.827 2.19938 67.827 5.06479V5.1402C67.827 7.96791 65.923 9.49487 62.5863 9.49487H61.1348V14.0381H57.2891ZM61.1348 6.85568H62.247C63.4912 6.85568 64.151 6.27128 64.151 5.15905V5.08365C64.151 3.93371 63.4723 3.46243 62.2658 3.46243H61.1348V6.85568Z" fill="#FFFFF7"/>
<path d="M51.6797 14.0381V0.559311H55.5819V14.0381H51.6797Z" fill="#FFFFF7"/>
<path d="M42.2256 14.0381L37.7578 0.559311H41.924L44.6574 10.0227L47.4097 0.559311H51.0292L46.618 14.0381H42.2256Z" fill="#FFFFF7"/>
<path d="M25.4551 14.0381V0.559311H34.7677V3.53783H29.3008V5.85655H33.6554V8.60886H29.3008V11.0595H35.0693V14.0381H25.4551Z" fill="#FFFFF7"/>
<path d="M11.6152 14.0381V0.559311H15.4986V5.70574H19.9287V0.559311H23.7932V14.0381H19.9287V8.72196H15.4986V14.0381H11.6152Z" fill="#FFFFF7"/>
<path d="M3.48751 14.0381V3.53783H0V0.559311H10.8584V3.53783H7.3709V14.0381H3.48751Z" fill="#FFFFF7"/>
</svg>
