<svg width="122" height="25" viewBox="0 0 122 25" fill="none" xmlns="http://www.w3.org/2000/svg">
<path d="M79.3018 24.4737V20.9478H80.4557C81.6935 20.9478 82.305 21.6184 82.305 22.6738V22.7132C82.305 23.7685 81.6886 24.4737 80.4508 24.4737H79.3018ZM80.1006 23.8524H80.4261C81.1362 23.8524 81.4716 23.4529 81.4716 22.7231V22.6836C81.4716 21.9587 81.1609 21.5691 80.4163 21.5691H80.1006V23.8524Z" fill="#1B1B1B"/>
<path d="M76.123 24.4737V20.9478H78.4211V21.5691H76.917V22.3927H78.1203V22.9746H76.917V23.8524H78.5V24.4737H76.123Z" fill="#1B1B1B"/>
<path d="M73.6407 24.528C72.4868 24.528 71.8457 23.7784 71.8457 22.7329V22.6935C71.8457 21.6332 72.6002 20.8935 73.6407 20.8935C74.4248 20.8935 75.1251 21.2535 75.2089 22.1264H74.415C74.3459 21.7121 74.0747 21.5247 73.6506 21.5247C73.0391 21.5247 72.6791 21.9834 72.6791 22.7033V22.7428C72.6791 23.4233 72.9701 23.9115 73.6605 23.9115C74.2522 23.9115 74.4939 23.5713 74.5087 23.1669H73.7147V22.585H75.2977V22.9598C75.2977 23.9017 74.6961 24.528 73.6407 24.528Z" fill="#1B1B1B"/>
<path d="M69.547 24.528C68.393 24.528 67.752 23.7784 67.752 22.7329V22.6935C67.752 21.6332 68.5065 20.8935 69.547 20.8935C70.3311 20.8935 71.0313 21.2535 71.1152 22.1264H70.3212C70.2522 21.7121 69.981 21.5247 69.5569 21.5247C68.9454 21.5247 68.5854 21.9834 68.5854 22.7033V22.7428C68.5854 23.4233 68.8763 23.9115 69.5667 23.9115C70.1585 23.9115 70.4001 23.5713 70.4149 23.1669H69.621V22.585H71.2039V22.9598C71.2039 23.9017 70.6023 24.528 69.547 24.528Z" fill="#1B1B1B"/>
<path d="M64.0498 24.4737L65.2087 20.9478H66.2492L67.3933 24.4737H66.5599L66.3183 23.6896H65.041L64.7994 24.4737H64.0498ZM65.6821 21.5987L65.2136 23.1225H66.1457L65.6821 21.5987Z" fill="#1B1B1B"/>
<path d="M60.7666 24.4737V20.9478H62.029C62.8625 20.9478 63.3901 21.288 63.3901 22.0179V22.0376C63.3901 22.5702 63.0794 22.8513 62.6652 22.9746L63.5972 24.4737H62.749L61.9058 23.1126H61.5606V24.4737H60.7666ZM61.5606 22.5702H62.0093C62.4088 22.5702 62.611 22.4025 62.611 22.0623V22.0425C62.611 21.6825 62.394 21.5592 62.0093 21.5592H61.5606V22.5702Z" fill="#1B1B1B"/>
<path d="M55.4424 24.4737V20.9478H56.3695L57.7108 23.2705V20.9478H58.421V24.4737H57.6221L56.1525 21.9636V24.4737H55.4424Z" fill="#1B1B1B"/>
<path d="M52.9753 24.528C52.0482 24.528 51.5205 24.0348 51.5205 23.0979V20.9478H52.3243V23.0485C52.3243 23.6354 52.4969 23.8918 52.9802 23.8918C53.4536 23.8918 53.6607 23.665 53.6607 23.0189V20.9478H54.4646V23.0683C54.4646 24.0299 53.927 24.528 52.9753 24.528Z" fill="#1B1B1B"/>
<path d="M48.0439 24.4737V20.9478H49.3064C50.1398 20.9478 50.6675 21.288 50.6675 22.0179V22.0376C50.6675 22.5702 50.3568 22.8513 49.9425 22.9746L50.8746 24.4737H50.0264L49.1831 23.1126H48.8379V24.4737H48.0439ZM48.8379 22.5702H49.2867C49.6861 22.5702 49.8883 22.4025 49.8883 22.0623V22.0425C49.8883 21.6825 49.6713 21.5592 49.2867 21.5592H48.8379V22.5702Z" fill="#1B1B1B"/>
<path d="M44.1082 24.4737V22.9548L42.9443 20.9478H43.8221L44.5372 22.299L45.2374 20.9478H46.0117L44.912 22.9548V24.4737H44.1082Z" fill="#1B1B1B"/>
<path d="M39.8877 24.4737V20.9478H41.2734C42.0427 20.9478 42.4422 21.2634 42.4422 21.865V21.8847C42.4422 22.2546 42.2646 22.5258 41.8701 22.6392C42.3287 22.7329 42.5753 22.9943 42.5753 23.4677V23.4874C42.5753 24.1334 42.1512 24.4737 41.3375 24.4737H39.8877ZM40.6669 22.3976H41.1452C41.5299 22.3976 41.6827 22.2595 41.6827 21.9439V21.9242C41.6827 21.6283 41.5151 21.4951 41.1403 21.4951H40.6669V22.3976ZM40.6669 23.9214H41.2142C41.6088 23.9214 41.7863 23.7439 41.7863 23.4233V23.4036C41.7863 23.0781 41.6088 22.9105 41.1748 22.9105H40.6669V23.9214Z" fill="#1B1B1B"/>
<path d="M112.386 14.0381V0.559311H121.698V3.53783H116.231V5.85655H120.586V8.60886H116.231V11.0595H122V14.0381H112.386Z" fill="#1B1B1B"/>
<path d="M104.258 14.0381V3.53783H100.771V0.559311H111.629V3.53783H108.141V14.0381H104.258Z" fill="#1B1B1B"/>
<path d="M96.0664 14.0381V0.559311H99.9686V14.0381H96.0664Z" fill="#1B1B1B"/>
<path d="M88.4183 14.2643C84.6103 14.2643 82.4424 12.3414 82.4424 8.57115V0.559311H86.3069V8.40149C86.3069 10.3055 86.7782 11.2292 88.4183 11.2292C90.0206 11.2292 90.5296 10.362 90.5296 8.34494V0.559311H94.4319V8.5146C94.4319 12.4357 92.132 14.2643 88.4183 14.2643Z" fill="#1B1B1B"/>
<path d="M76.3599 14.2646C72.5897 14.2646 70.6668 12.6811 70.5537 9.75909H74.2297C74.324 10.7205 74.7576 11.5123 76.3599 11.5123C77.4722 11.5123 78.0943 10.9656 78.0943 10.1738C78.0943 9.34436 77.5853 9.11814 75.9641 8.87307C72.1561 8.42064 70.8742 7.28955 70.8742 4.57495C70.8742 2.14312 72.8724 0.371094 76.096 0.371094C79.3385 0.371094 81.167 1.72839 81.4121 4.57495H77.8303C77.6984 3.61353 77.1517 3.1234 76.096 3.1234C75.0592 3.1234 74.5314 3.59468 74.5314 4.27333C74.5314 5.02739 74.9461 5.36671 76.6239 5.59293C80.036 5.96996 81.7891 6.85597 81.7891 9.77794C81.7891 12.2475 79.8286 14.2646 76.3599 14.2646Z" fill="#1B1B1B"/>
<path d="M57.2891 14.0381V0.559311H62.4166C66.1115 0.559311 67.827 2.19938 67.827 5.06479V5.1402C67.827 7.96791 65.923 9.49487 62.5863 9.49487H61.1348V14.0381H57.2891ZM61.1348 6.85568H62.247C63.4912 6.85568 64.151 6.27128 64.151 5.15905V5.08365C64.151 3.93371 63.4723 3.46243 62.2658 3.46243H61.1348V6.85568Z" fill="#1B1B1B"/>
<path d="M51.6797 14.0381V0.559311H55.5819V14.0381H51.6797Z" fill="#1B1B1B"/>
<path d="M42.2256 14.0381L37.7578 0.559311H41.924L44.6574 10.0227L47.4097 0.559311H51.0292L46.618 14.0381H42.2256Z" fill="#1B1B1B"/>
<path d="M25.4561 14.0381V0.559311H34.7686V3.53783H29.3017V5.85655H33.6564V8.60886H29.3017V11.0595H35.0703V14.0381H25.4561Z" fill="#1B1B1B"/>
<path d="M11.6152 14.0381V0.559311H15.4986V5.70574H19.9287V0.559311H23.7932V14.0381H19.9287V8.72196H15.4986V14.0381H11.6152Z" fill="#1B1B1B"/>
<path d="M3.48751 14.0381V3.53783H0V0.559311H10.8584V3.53783H7.3709V14.0381H3.48751Z" fill="#1B1B1B"/>
</svg>
