<svg width="185" height="21" viewBox="0 0 185 21" fill="none" xmlns="http://www.w3.org/2000/svg">
<path d="M170.496 20.6259V0.291748H184.545V4.78518H176.298V8.28323H182.867V12.4354H176.298V16.1325H185V20.6259H170.496Z" fill="white"/>
<path d="M158.234 20.6259V4.78518H152.973V0.291748H169.354V4.78518H164.092V20.6259H158.234Z" fill="white"/>
<path d="M145.875 20.6259V0.291748H151.762V20.6259H145.875Z" fill="white"/>
<path d="M134.338 20.9672C128.593 20.9672 125.322 18.0664 125.322 12.3785V0.291748H131.152V12.1226C131.152 14.9949 131.863 16.3885 134.338 16.3885C136.755 16.3885 137.523 15.0803 137.523 12.0372V0.291748H143.41V12.2932C143.41 18.2086 139.94 20.9672 134.338 20.9672Z" fill="white"/>
<path d="M116.147 20.9677C110.459 20.9677 107.559 18.5788 107.388 14.1707H112.934C113.076 15.6211 113.73 16.8155 116.147 16.8155C117.825 16.8155 118.764 15.9908 118.764 14.7963C118.764 13.545 117.996 13.2037 115.55 12.834C109.805 12.1515 107.871 10.4451 107.871 6.34981C107.871 2.68112 110.886 0.0078125 115.749 0.0078125C120.641 0.0078125 123.399 2.05545 123.769 6.34981H118.366C118.166 4.8994 117.342 4.15997 115.749 4.15997C114.185 4.15997 113.389 4.87096 113.389 5.89478C113.389 7.03236 114.014 7.54426 116.545 7.88554C121.693 8.45433 124.338 9.79098 124.338 14.1991C124.338 17.9247 121.38 20.9677 116.147 20.9677Z" fill="white"/>
<path d="M87.3762 20.6259V0.291748H95.1118C100.686 0.291748 103.274 2.76598 103.274 7.08878V7.20253C103.274 11.4684 100.401 13.772 95.3677 13.772H93.1779V20.6259H87.3762ZM93.1779 9.79052H94.8558C96.7328 9.79052 97.7282 8.9089 97.7282 7.23097V7.11722C97.7282 5.38241 96.7044 4.67142 94.8842 4.67142H93.1779V9.79052Z" fill="white"/>
<path d="M78.9141 20.6259V0.291748H84.801V20.6259H78.9141Z" fill="white"/>
<path d="M64.651 20.6259L57.9109 0.291748H64.196L68.3197 14.5683L72.4719 0.291748H77.9323L71.2774 20.6259H64.651Z" fill="white"/>
<path d="M39.3525 20.6259V0.291748H53.4016V4.78518H45.1542V8.28323H51.7237V12.4354H45.1542V16.1325H53.8567V20.6259H39.3525Z" fill="white"/>
<path d="M18.4727 20.6259V0.291748H24.3312V8.05572H31.0145V0.291748H36.8445V20.6259H31.0145V12.606H24.3312V20.6259H18.4727Z" fill="white"/>
<path d="M6.21052 20.6259V4.78518H0.949219V0.291748H17.3303V4.78518H12.069V20.6259H6.21052Z" fill="white"/>
</svg>
