<svg width="20" height="20" viewBox="0 0 20 20" fill="none" xmlns="http://www.w3.org/2000/svg">
<path d="M18 3H18.75V2.25H18V3ZM18 16V16.75H18.75V16H18ZM10 18H10.75H10ZM13 3.75H18V2.25H13V3.75ZM17.25 3V16H18.75V3H17.25ZM10.75 18V6H9.25V18H10.75ZM18 15.25H12V16.75H18V15.25ZM12 15.25C10.4812 15.25 9.25 16.4812 9.25 18H10.75C10.75 17.3096 11.3096 16.75 12 16.75V15.25ZM13 2.25C10.9289 2.25 9.25 3.92893 9.25 6H10.75C10.75 4.75736 11.7574 3.75 13 3.75V2.25Z" fill="#1B1B1B"/>
<path d="M2 3H1.25V2.25H2V3ZM2 16V16.75H1.25V16H2ZM10 18H9.25H10ZM7 3.75H2V2.25H7V3.75ZM2.75 3V16H1.25V3H2.75ZM9.25 18V6H10.75V18H9.25ZM2 15.25H8V16.75H2V15.25ZM8 15.25C9.51878 15.25 10.75 16.4812 10.75 18H9.25C9.25 17.3096 8.69036 16.75 8 16.75V15.25ZM7 2.25C9.07107 2.25 10.75 3.92893 10.75 6H9.25C9.25 4.75736 8.24264 3.75 7 3.75V2.25Z" fill="#1B1B1B"/>
</svg>
