<svg width="137" height="50" viewBox="0 0 137 50" fill="none" xmlns="http://www.w3.org/2000/svg">
<path d="M56.4374 37.6562C52.5675 35.1633 47.3156 34.7259 38.8458 37.0758C29.8163 39.1976 26.8057 40.5578 22.852 37.8273C21.3331 36.4859 20.7885 34.3262 21.1951 31.2153C22.1383 26.144 24.6871 21.2636 29.2145 15.8501C31.7415 13.034 34.0857 10.6173 37.1809 9.64683C39.5531 9.03804 39.3313 10.9024 39.0443 11.169C38.7414 11.169 38.2326 11.2167 37.8393 11.4733C37.5202 11.7209 36.6441 12.5201 36.597 13.5952C36.5292 15.241 38.2323 14.8985 38.9669 13.9948C39.7588 12.9766 40.929 11.0265 40.0085 9.20912C39.6227 8.56224 38.956 8.11516 38.1283 7.96293C35.294 7.80095 32.6545 9.15205 30.2183 10.6458C24.8906 14.3468 20.6287 19.475 18.2172 25.0885C16.827 28.4754 15.5696 33.327 17.4542 37.2758C18.9123 40.0157 21.9391 41.4711 25.5504 41.1668C28.0833 40.9006 31.1459 40.082 33.2058 39.5878C35.2658 39.0926 45.8099 35.4682 49.2745 41.7765C49.2745 41.7765 50.4265 39.5401 53.3057 39.4923C55.6727 39.2739 59.0876 40.1776 61.5742 42.004C60.7457 40.758 58.3969 38.9218 56.4374 37.6562Z" fill="#1B1B1B"/>
<path d="M39.9216 16.4877C37.9495 15.1938 33.9858 17.6674 30.811 21.9105C27.9078 25.7166 26.6542 30.1401 28.0186 32.1857C30.0479 34.5927 33.8155 31.0916 35.4176 29.2176L35.6243 28.9986C36.7138 27.8283 37.5555 26.4202 38.3703 25.0689C38.3703 25.0689 39.1191 23.8321 39.1549 23.7749C39.6177 23.6896 40.1751 23.5564 40.8033 23.3755C40.7943 23.4039 38.3999 27.4284 38.6442 29.426C38.7203 30.0355 38.6623 32.2618 40.8358 32.9371C43.7327 33.4227 46.046 31.177 48.0867 29.179C48.0867 29.179 48.4345 28.8464 48.6312 28.6564C48.5814 28.8556 48.5165 29.1214 48.5165 29.1214C47.6684 32.0709 48.8116 32.6898 49.5267 32.9181C51.688 33.5466 54.27 30.4066 54.2784 30.4066C54.2113 31.3957 54.0157 32.2138 55.0583 32.8704C56.0423 33.2227 57.0382 32.6856 57.7953 32.1813C60.5221 30.2596 62.7189 27.2516 64.4931 24.6517H63.3613C63.3479 24.6517 60.5686 28.6802 58.7638 29.5558C58.761 29.5558 58.4325 29.7244 58.2433 29.591C58.0089 29.3912 58.1013 28.9756 58.246 28.6813C58.2551 28.6622 65.2146 16.5917 65.2146 16.5917H61.9287C61.9287 16.5917 61.5698 17.1724 61.5405 17.2105C61.5184 17.1915 61.4658 17.0917 61.4294 17.0438C59.3936 14.2277 54.7833 18.5594 51.3124 23.5826C49.9762 25.5142 48.2748 27.689 46.5107 29.2587C46.5107 29.2587 43.8972 31.6544 42.7806 29.9332C42.3724 29.21 42.498 28.1527 42.7282 27.4583C44.0283 23.7572 46.2687 20.3984 48.8181 18.3718C49.5377 17.8108 50.32 17.6486 50.7081 17.8865C51.078 18.1057 51.1377 18.6475 50.9037 19.0187C50.31 18.9997 49.8342 19.1801 49.4476 19.5798C48.6858 20.379 48.4211 21.1498 48.6633 21.873C49.8399 23.5474 52.1866 20.2364 52.0731 18.2194C52.0325 17.4962 51.6468 16.8114 51.0709 16.4781C50.2128 15.9646 48.9036 16.0976 48.0564 16.5069C46.9222 16.9349 45.127 18.4285 44.079 19.5894C42.7598 21.0453 40.4971 22.6625 39.7897 22.4814C40.0209 21.8628 41.9321 17.9527 39.9216 16.4877ZM55.7637 22.2722C56.4029 21.3876 58.2633 19.0184 58.7169 18.6189C60.2423 17.2769 60.852 17.8674 60.9048 18.2857C59.4812 20.8354 57.8009 23.7564 56.2211 26.3825C56.2244 26.3731 55.7267 27.134 55.7267 27.134C55.029 28.1992 54.3265 29.1127 53.1805 29.75C53.0171 29.798 52.7478 29.8171 52.5685 29.6833C52.3527 29.5406 52.2675 29.3027 52.2919 29.0553C52.3606 28.2373 53.1934 25.7356 55.7637 22.2722ZM37.8879 23.8039C37.8879 23.8039 37.8591 23.8898 37.8451 23.9179C37.8415 23.9179 36.4124 26.2486 36.4124 26.2486C35.5499 27.4 34.4731 28.8465 33.1271 29.5407C32.7281 29.6738 32.1765 29.7598 31.8955 29.408C31.2997 28.6943 31.6067 27.7047 31.8562 26.9057L31.9446 26.6202C32.6599 24.6796 33.7947 22.9667 34.8994 21.3778C34.9132 21.3684 34.9441 21.359 34.9553 21.359C34.958 21.3684 34.9625 21.3684 34.9643 21.3876C35.6574 22.7193 36.9572 23.3374 37.9292 23.6233C37.9351 23.6233 37.9414 23.6328 37.9414 23.6519C37.9416 23.6803 37.9257 23.7186 37.8879 23.8039ZM39.2417 21.0546C39.2353 21.0736 38.6052 22.5197 38.6052 22.5197C38.5141 22.5958 38.37 22.5578 38.2049 22.5197L37.9221 22.4719C37.0338 22.1962 36.3637 21.6062 36.1572 20.9023C35.8723 19.5322 37.0427 18.4571 37.5583 18.0672C38.0531 17.7244 38.8223 17.5437 39.269 17.8959C39.5445 18.2194 39.6489 18.6379 39.6489 19.0949C39.649 19.713 39.4582 20.4075 39.2417 21.0546ZM80.7822 25.4688C80.4653 24.784 79.7132 24.3462 78.9117 24.3937C76.3086 24.6317 73.7626 26.7723 72.4256 29.8452C71.7242 31.4247 71.3413 32.7279 71.0903 34.802C71.8998 33.8699 73.5508 32.3382 75.4244 31.5009C75.4244 31.5009 75.6793 29.5125 76.9793 27.7428C77.4712 27.01 78.4556 25.8303 79.561 26.1442C80.5269 26.4677 80.1874 29.1413 78.9037 31.7286C77.9539 33.6317 76.5005 35.535 75.0299 36.8477C73.7298 37.9512 71.8062 39.2832 70.1232 38.2558C69.0632 37.6282 68.5225 36.3148 68.6366 34.6214C69.1431 29.8169 71.3303 25.7258 74.46 21.064C77.6872 16.7351 81.2445 12.292 86.0367 9.92263C87.0142 9.42798 87.9194 9.31384 88.7019 9.6183C88.7019 9.6183 84.2033 12.092 82.059 16.6684C81.5135 17.8293 80.7548 19.3987 81.5188 20.7879C81.9181 21.5108 82.6268 21.568 83.1977 21.5299C85.8261 20.9209 87.5244 18.4663 88.9119 16.2212C89.7163 14.5182 90.4313 12.8246 90.4313 10.9408C90.4313 10.7125 90.4195 10.4082 90.4002 10.1796C91.6559 9.51391 94.2311 10.6934 94.2311 10.6934C96.2434 11.3597 100.528 14.6422 101.973 15.2698C102.678 14.4517 103.837 13.215 104.489 12.5965L103.545 12.016C102.033 11.0932 100.435 10.2177 98.8621 9.35206C95.2898 7.40191 92.382 8.08676 90.9022 8.61963C90.3205 8.8288 89.7891 9.00964 89.7891 9.00964C88.6908 7.8109 86.8896 7.92478 85.5624 8.24848C80.7895 9.61843 76.3582 12.9578 71.6073 18.752C68.1144 23.2904 65.9478 27.2103 64.793 31.0824C63.9029 33.6892 63.6324 37.5233 65.8049 39.7973C67.6521 41.7282 70.1015 41.3098 71.831 40.6156C75.5786 38.7699 78.9468 34.7927 80.6251 30.2163C81.0301 28.856 81.4796 26.9342 80.7822 25.4688ZM89.3996 11.1313C88.9035 16.8207 84.481 20.1605 83.3867 20.4265C82.7235 20.5594 81.592 20.2647 82.6023 17.877C84.0897 14.6609 86.6296 11.9306 89.3544 10.5319C89.4208 10.7698 89.419 10.9217 89.3996 11.1313ZM115.634 11.8541C113.255 13.2053 110.789 14.0803 107.803 13.776C106.976 14.7086 106.171 15.6695 105.428 16.6588C109.618 17.7244 114.06 15.3554 116.537 13.1008C119.158 10.8268 120.501 7.96326 120.501 7.96326C120.501 7.96326 118.537 10.2084 115.634 11.8541ZM70.6758 16.5919H67.5553L65.7951 19.452H68.915L70.6758 16.5919Z" fill="#1B1B1B"/>
<path d="M107.791 37.9212C107.456 38.1495 106.984 37.974 107.16 37.4508C107.599 36.1188 109.345 33.4044 109.345 33.4044L114.206 24.782H110.876C110.718 25.042 110.38 25.6389 110.38 25.6389C110.226 25.3823 109.765 24.8117 109.575 24.6884C108.762 24.1742 107.568 24.4173 106.745 24.8834C103.165 26.9768 100.552 31.1128 98.4924 34.3382C98.4924 34.3382 96.3238 37.9237 95.1201 38.1903C94.1804 38.2665 94.2773 37.0005 94.318 36.7055C94.6814 34.574 95.5252 32.5477 96.3753 30.7115C98.1046 29.5127 100.078 27.943 101.871 26.221C105.763 22.5006 109.044 18.2858 109.524 17.344C109.524 17.344 109.005 17.4487 108.392 17.4676C105.398 21.6443 99.2704 27.7145 97.4128 28.6182C98.2357 26.6388 103.553 17.1916 108.077 12.6725L108.789 11.9873C109.89 10.9122 111.03 9.80859 111.919 9.62776C112.013 9.61827 112.134 9.62776 112.239 9.84694C112.278 10.684 111.967 11.3026 111.609 12.0065L111.108 13.0342C111.108 13.0342 111.818 12.9009 112.284 12.7483C112.825 11.7308 113.424 10.5887 113.203 9.22852C113.129 8.79081 112.812 8.45788 112.398 8.3817C111.049 8.12481 109.578 9.12348 108.394 9.93248L108.346 9.96082C102.262 14.7274 97.1245 21.5967 92.6327 30.9777C92.3072 31.2247 91.0494 31.5199 90.8357 31.3771C91.2792 30.4639 91.8377 29.2363 92.1171 27.9043C92.1655 27.5236 92.2104 27.1338 92.2104 26.7533C92.2104 25.9344 92.0139 25.1641 91.2804 24.6316C90.4203 24.2033 89.3573 24.4033 88.6405 24.7265C85.4299 26.0585 83.0302 29.3506 81.2984 32.0618C80.3671 33.7843 79.4385 35.6291 79.1814 37.7417C79.0003 39.3968 79.3689 40.4626 80.3102 40.9954C81.2779 41.4898 82.496 40.9759 82.9745 40.7288C86.2273 39.0162 88.5001 35.5818 90.2915 32.442C90.3627 32.4327 91.3409 32.4043 92.0808 32.2137C92.0906 32.2137 92.0948 32.2137 92.1111 32.2236C92.0687 32.3658 91.6864 33.5079 91.6864 33.5079C90.551 36.8375 90.0259 39.1021 91.0984 40.4435C92.631 42.3368 95.1684 40.3772 97.2324 37.7888C96.7893 40.8903 98.3967 41.3758 99.6221 41.1382C101.03 40.7578 102.598 39.2542 103.326 38.4838C103.092 39.3875 103.156 41.0052 104.436 41.1667C105.314 41.3289 105.971 40.8515 106.73 40.4423C109.456 38.9579 112.72 34.0118 113.567 32.5818H112.456C111.251 34.4022 109.719 36.7885 107.791 37.9212ZM83.3225 37.5899C83.1496 37.3329 83.0923 37.0521 83.0866 36.7484C83.0534 34.8828 85.0606 31.542 86.4773 29.722H86.4803C87.0738 31.022 88.4183 31.8577 89.2299 32.2098C88.222 34.4554 84.7649 39.2644 83.3225 37.5899ZM89.7989 31.206C89.703 31.2731 88.0076 30.7018 87.6799 29.1321C87.402 27.7806 88.3326 26.7246 89.233 26.1924C89.6195 25.8876 90.2017 25.7834 90.6287 25.935C91.0251 26.2019 91.1325 26.6779 91.1325 27.1908C91.1325 27.5054 91.0907 27.8286 91.054 28.1234L91.0459 28.1902C90.762 29.245 90.3428 30.2587 89.7989 31.206ZM103.397 36.9906C103.395 36.9906 103.075 37.276 103.075 37.276C102.618 37.685 102.147 38.1226 101.579 37.9036C101.422 37.8467 101.312 37.6375 101.285 37.4753C101.259 36.305 101.786 35.2207 102.297 34.1647L102.428 33.8887C103.898 31.4341 105.607 28.5419 108.117 26.5347C108.539 26.2295 108.998 25.9732 109.483 26.1731C109.594 26.2776 109.724 26.4585 109.724 26.639C109.724 26.6964 109.673 26.8485 109.644 26.8959C108.943 28.0286 108.275 29.2176 107.626 30.3593C106.358 32.6142 105.042 34.9447 103.397 36.9906Z" fill="#1B1B1B"/>
</svg>
