<svg width="20" height="20" viewBox="0 0 20 20" fill="none" xmlns="http://www.w3.org/2000/svg">
<g clip-path="url(#clip0_464_1824)">
<path d="M2 3V2.25H1.25V3H2ZM18 3L18.75 3V2.25H18V3ZM2 14H1.25V14.75H2V14ZM5 14H5.75V13.25H5V14ZM5 18H4.25V19.8107L5.53033 18.5303L5 18ZM9 14L9 13.25H8.68934L8.46967 13.4697L9 14ZM18 14V14.75H18.75V14H18ZM2 3.75L18 3.75V2.25L2 2.25V3.75ZM2.75 14L2.75 3H1.25L1.25 14H2.75ZM5 13.25H2V14.75H5V13.25ZM5.75 18V14H4.25V18H5.75ZM8.46967 13.4697L4.46967 17.4697L5.53033 18.5303L9.53033 14.5303L8.46967 13.4697ZM18 13.25L9 13.25L9 14.75L18 14.75V13.25ZM17.25 3V14H18.75V3L17.25 3Z" fill="#1B1B1B"/>
</g>
<defs>
<clipPath id="clip0_464_1824">
<rect width="20" height="20" fill="white"/>
</clipPath>
</defs>
</svg>
