<svg width="137" height="50" viewBox="0 0 137 50" fill="none" xmlns="http://www.w3.org/2000/svg">
<path d="M129.5 17.6607C129.5 17.5563 129.454 17.4475 129.361 17.3937C129.265 17.3442 129.16 17.3369 129.056 17.3369H128.513V18.5562H128.697V17.9975H128.915L129.272 18.5562H129.483L129.107 17.9975C129.327 17.9884 129.5 17.899 129.5 17.6607ZM128.9 17.8426H128.697V17.4757H129.02C129.175 17.4757 129.312 17.4966 129.312 17.6566C129.313 17.8746 129.074 17.8426 128.9 17.8426ZM120.733 37.8401C117.891 37.8401 116.238 36.9669 115.345 36.9669V32.4455H115.808C116.204 34.4152 118.287 35.7729 120.503 35.7729C122.387 35.7729 123.875 34.803 123.875 32.8656C123.875 31.5416 123.214 30.3787 121.495 29.2151L119.081 27.6006C116.998 26.2121 115.246 24.6286 115.246 21.7864C115.246 18.4272 117.56 16.2624 121.394 16.2624C123.677 16.2624 124.634 16.7806 125.957 16.9091V20.8165H125.494C125.196 19.3312 123.611 18.1376 121.495 18.1376C119.509 18.1376 118.618 19.2034 118.618 20.6235C118.618 21.8509 119.379 22.8201 121.23 24.0478L123.313 25.4037C126.519 27.5043 127.511 29.021 127.511 31.6379C127.511 35.4811 124.766 37.8401 120.733 37.8401ZM107.146 37.8401C104.302 37.8401 102.65 36.9669 101.757 36.9669V32.4455H102.221C102.617 34.4152 104.7 35.7729 106.914 35.7729C108.8 35.7729 110.287 34.803 110.287 32.8656C110.287 31.5416 109.626 30.3787 107.907 29.2151L105.493 27.6006C103.41 26.2121 101.658 24.6286 101.658 21.7864C101.658 18.4272 103.972 16.2624 107.807 16.2624C110.089 16.2624 111.047 16.7806 112.37 16.9091V20.8165H111.907C111.609 19.3312 110.022 18.1376 107.907 18.1376C105.923 18.1376 105.03 19.2034 105.03 20.6235C105.03 21.8509 105.79 22.8201 107.642 24.0478L109.725 25.4037C112.931 27.5043 113.923 29.021 113.923 31.6379C113.923 35.4811 111.18 37.8401 107.146 37.8401ZM88.6323 37.5165V37.0969C88.7979 36.9365 88.8315 36.0963 88.8315 35.644V19.17C88.8315 17.8149 88.3681 17.103 87.872 17.0063V16.5864H99.476V19.4282H99.0466C98.9473 18.9438 97.9564 18.622 97.3277 18.622H92.931V25.7914H96.6327C97.1292 25.7914 98.2865 25.663 98.4189 25.3392H98.8488V28.0531H98.4189C98.2523 27.8919 97.3279 27.8269 96.7654 27.8269H92.931V35.4811H97.2943C98.4852 35.4811 99.2124 35.0292 99.3453 34.513H99.7747V37.5165H88.6323ZM82.5494 37.5165L71.6082 18.6222C71.2427 17.9748 70.5496 17.103 69.9215 17.0063V16.5864H75.21L82.8465 29.9579V19.17C82.8465 17.8149 82.4829 17.103 82.02 17.0063V16.5864H85.1613V37.5165H82.5494ZM71.1778 37.5165V37.0969C71.3428 36.9365 71.3757 35.708 71.3757 35.4811V21.0441L73.6905 25.21V35.3846C73.6905 36.1928 73.8549 36.999 74.0205 37.0968V37.5163L71.1778 37.5165ZM65.1565 37.5165L54.2136 18.6222C53.8501 17.9748 53.1557 17.103 52.5272 17.0063V16.5864H57.8173L65.4541 29.9579V19.17C65.4541 17.8149 65.0905 17.103 64.6277 17.0063V16.5864H67.7695V37.5165H65.1565ZM53.7836 37.5165V37.0969C53.949 36.9365 53.9819 35.708 53.9819 35.4811V21.0441L56.2964 25.21V35.3846C56.2964 36.1928 56.4615 36.999 56.6273 37.0968V37.5163L53.7836 37.5165ZM46.0806 37.5165V37.0969C46.2127 36.9992 46.312 36.0963 46.312 35.5467V19.17C46.312 17.8149 45.8493 17.103 45.3532 17.0063V16.5864H50.3782V35.1907C50.3782 36.3874 50.6093 37.0651 50.742 37.0969V37.5165H46.0806ZM42.3783 33.8995C41.5846 36.515 39.4356 37.8401 35.9648 37.8401C30.9394 37.8401 28.8229 35.0953 28.8229 30.8954V19.1702C28.8229 17.8151 28.3603 17.1032 27.8651 17.0065V16.5866H32.9562V30.9925C32.9562 32.3805 33.1208 33.1238 33.4189 33.7064C34.0801 34.9648 35.27 35.3526 36.5592 35.3526C37.9151 35.3526 39.204 34.9648 39.8652 33.7064C40.1628 33.1238 40.3284 32.3805 40.3284 30.8309V19.1702C40.3284 17.8151 39.8652 17.1032 39.3692 17.0065V16.5866H42.775V30.5399C42.7754 32.1859 42.6427 33.0911 42.3783 33.8995ZM25.5177 27.2779V36.8702C25.2863 36.9669 22.3767 37.9039 18.5413 37.9039C12.5583 37.9039 7.5 33.6733 7.5 24.8235C7.5 17.1675 11.9298 12.0962 18.3434 12.0962C21.4842 12.0962 22.9722 12.8721 23.8977 12.8721C24.0294 12.8721 24.0961 12.8399 24.1292 12.8072H24.4591V18.0073H23.9305C23.3024 15.3588 21.2195 14.1959 18.9055 14.1959C15.1367 14.1959 12.0616 17.264 12.0616 24.6612C12.0616 32.574 15.467 35.708 19.0375 35.708C20.0628 35.708 20.7892 35.5785 21.253 35.3848V27.8269C21.253 26.7279 20.9552 25.3392 19.7321 25.0817V24.6287H25.7486V25.0495C25.5837 25.1446 25.5177 26.6313 25.5177 27.2779Z" fill="#1B1B1B"/>
</svg>
