<svg width="21" height="20" viewBox="0 0 21 20" fill="none" xmlns="http://www.w3.org/2000/svg">
<path d="M3.5 7L3.06407 6.3897L2.75 6.61404L2.75 7L3.5 7ZM10.5 2L10.9359 1.3897L10.5 1.07832L10.0641 1.3897L10.5 2ZM3.5 18L2.75 18L2.75 18.75L3.5 18.75L3.5 18ZM8.5 18L8.5 18.75L9.25 18.75L9.25 18L8.5 18ZM8.5 12L8.5 11.25L7.75 11.25L7.75 12L8.5 12ZM12.5 12L13.25 12L13.25 11.25L12.5 11.25L12.5 12ZM12.5 18L11.75 18L11.75 18.75L12.5 18.75L12.5 18ZM17.5 18L17.5 18.75L18.25 18.75L18.25 18L17.5 18ZM17.5 7L18.25 7L18.25 6.61404L17.9359 6.3897L17.5 7ZM3.93593 7.6103L10.9359 2.6103L10.0641 1.3897L3.06407 6.3897L3.93593 7.6103ZM4.25 18L4.25 7L2.75 7L2.75 18L4.25 18ZM8.5 17.25L3.5 17.25L3.5 18.75L8.5 18.75L8.5 17.25ZM9.25 18L9.25 12L7.75 12L7.75 18L9.25 18ZM8.5 12.75L12.5 12.75L12.5 11.25L8.5 11.25L8.5 12.75ZM11.75 12L11.75 18L13.25 18L13.25 12L11.75 12ZM17.5 17.25L12.5 17.25L12.5 18.75L17.5 18.75L17.5 17.25ZM16.75 7L16.75 18L18.25 18L18.25 7L16.75 7ZM10.0641 2.6103L17.0641 7.6103L17.9359 6.3897L10.9359 1.3897L10.0641 2.6103Z" fill="#1B1B1B"/>
</svg>
