<svg width="24" height="20" viewBox="0 0 24 20" fill="none" xmlns="http://www.w3.org/2000/svg">
<rect x="1.5" y="4" width="18" height="12" stroke="#1B1B1B" stroke-width="1.5"/>
<path d="M1.5 16L8.25 10L10.5 12L12.75 10L19.5 16" stroke="#1B1B1B" stroke-width="1.5"/>
<path d="M19.5 4L10.5 12L1.5 4" stroke="#1B1B1B" stroke-width="1.5"/>
<circle cx="19.5" cy="5" r="4" fill="#DC0E03"/>
<path d="M18 7V6.86759L19.5667 5.29517C19.9613 4.89793 20.1992 4.55034 20.1992 4.17517C20.1992 3.80552 19.9787 3.57379 19.5783 3.57379C19.1663 3.57379 18.9052 3.8 18.8356 4.35724H18.1277C18.1799 3.49655 18.7253 3 19.6015 3C20.4603 3 20.971 3.46897 20.971 4.16414C20.971 4.67724 20.6518 5.12414 20.1586 5.57655L19.236 6.43172H21V7H18Z" fill="#FFFFF7"/>
</svg>
