<svg width="14" height="14" viewBox="0 0 14 14" fill="none" xmlns="http://www.w3.org/2000/svg">
<mask id="mask0_498_10716" style="mask-type:luminance" maskUnits="userSpaceOnUse" x="0" y="0" width="14" height="15">
<path fill-rule="evenodd" clip-rule="evenodd" d="M0 0H14V14.0076H0V0Z" fill="white"/>
</mask>
<g mask="url(#mask0_498_10716)">
<path fill-rule="evenodd" clip-rule="evenodd" d="M6.99997 0C5.09869 0 4.86053 0.00805464 4.11384 0.0419513C3.36883 0.0761835 2.85997 0.194654 2.4145 0.367829C1.95428 0.546709 1.56382 0.786334 1.17471 1.17564C0.785601 1.56495 0.546097 1.9556 0.367643 2.41606C0.19422 2.86175 0.0758095 3.37053 0.0419301 4.11626C0.00771513 4.86333 0 5.10161 0 7.00385C0 8.90608 0.00771513 9.1447 0.0419301 9.89144C0.0758095 10.6368 0.19422 11.1459 0.367643 11.5916C0.546097 12.0521 0.785601 12.4427 1.17471 12.8321C1.56382 13.2217 1.95428 13.461 2.4145 13.6402C2.85997 13.813 3.36883 13.9315 4.11384 13.9657C4.86053 13.9996 5.09869 14.0077 6.99997 14.0077C8.90125 14.0077 9.13941 13.9996 9.8861 13.9657C10.6314 13.9315 11.1403 13.813 11.5854 13.6402C12.046 13.461 12.4361 13.2217 12.8252 12.8321C13.2143 12.4427 13.4538 12.0521 13.6326 11.5916C13.8057 11.1459 13.9245 10.6368 13.958 9.89144C13.9922 9.1447 14.0003 8.90608 14.0003 7.00385C14.0003 5.10161 13.9922 4.86333 13.958 4.11626C13.9245 3.37053 13.8057 2.86175 13.6326 2.41606C13.4538 1.9556 13.2143 1.56495 12.8252 1.17564C12.4361 0.786334 12.046 0.546709 11.5854 0.367829C11.1403 0.194654 10.6314 0.0761835 9.8861 0.0419513C9.13941 0.00805464 8.90125 0 6.99997 0ZM6.99993 1.26171C8.869 1.26171 9.09039 1.26876 9.82869 1.30266C10.5113 1.33387 10.8816 1.44798 11.1289 1.54396C11.4552 1.67082 11.6887 1.82252 11.9336 2.06785C12.1784 2.31284 12.3301 2.54609 12.4572 2.87298C12.5531 3.11999 12.6672 3.4905 12.698 4.1738C12.7316 4.91214 12.739 5.13365 12.739 7.00367C12.739 8.87368 12.7316 9.09552 12.698 9.83387C12.6672 10.5168 12.5531 10.8873 12.4572 11.1344C12.3301 11.4612 12.1784 11.6945 11.9336 11.9398C11.6887 12.1848 11.4552 12.3365 11.1289 12.4637C10.8816 12.5594 10.5113 12.6738 9.82869 12.7047C9.09039 12.7386 8.86934 12.7456 6.99993 12.7456C5.13086 12.7456 4.90947 12.7386 4.17117 12.7047C3.48889 12.6738 3.11822 12.5594 2.87134 12.4637C2.54462 12.3365 2.31149 12.1848 2.06662 11.9398C1.82141 11.6945 1.6698 11.4612 1.54266 11.1344C1.44706 10.8873 1.33301 10.5168 1.30182 9.83387C1.26827 9.09552 1.26123 8.87368 1.26123 7.00367C1.26123 5.13365 1.26827 4.91214 1.30182 4.1738C1.33301 3.4905 1.44706 3.11999 1.54266 2.87298C1.6698 2.54609 1.82141 2.31284 2.06662 2.06785C2.31149 1.82252 2.54462 1.67082 2.87134 1.54396C3.11822 1.44798 3.48889 1.33387 4.17117 1.30266C4.90947 1.26876 5.13086 1.26171 6.99993 1.26171Z" fill="#1B1B1B"/>
</g>
<path fill-rule="evenodd" clip-rule="evenodd" d="M7.00014 9.33835C5.71137 9.33835 4.66681 8.29326 4.66681 7.00384C4.66681 5.71443 5.71137 4.669 7.00014 4.669C8.2889 4.669 9.33347 5.71443 9.33347 7.00384C9.33347 8.29326 8.2889 9.33835 7.00014 9.33835ZM6.99986 3.40723C5.01472 3.40723 3.40527 5.01715 3.40527 7.00363C3.40527 8.98977 5.01472 10.6 6.99986 10.6C8.98533 10.6 10.5948 8.98977 10.5948 7.00363C10.5948 5.01715 8.98533 3.40723 6.99986 3.40723Z" fill="#1B1B1B"/>
<path fill-rule="evenodd" clip-rule="evenodd" d="M11.5767 3.26517C11.5767 3.72932 11.2007 4.10554 10.7367 4.10554C10.2725 4.10554 9.89648 3.72932 9.89648 3.26517C9.89648 2.80102 10.2725 2.4248 10.7367 2.4248C11.2007 2.4248 11.5767 2.80102 11.5767 3.26517Z" fill="#1B1B1B"/>
</svg>
