<svg width="137" height="50" viewBox="0 0 137 50" fill="none" xmlns="http://www.w3.org/2000/svg">
<path d="M78.9831 44.8935H81.737V45.5311H78.9831V44.8935ZM33.1766 41.027L32.9305 47.4258V47.537C32.9305 48.0786 33.09 48.1904 33.9536 48.2516V48.548C33.325 48.4996 33.0776 48.4872 32.733 48.4872C32.3875 48.4872 32.141 48.4996 31.5 48.548V48.2516C32.3627 48.1904 32.4865 48.0914 32.5111 47.4258L32.77 41.3728V41.2999C32.77 40.7318 32.597 40.6089 31.7471 40.5598V40.2509C32.227 40.2882 32.412 40.3006 32.7575 40.3006C33.1489 40.3042 33.5402 40.2838 33.9291 40.2398L36.2213 46.4769L38.5507 40.2398C39.1064 40.2882 39.365 40.3006 39.735 40.3006C40.042 40.3006 40.24 40.2882 40.7082 40.2509V40.5598C39.8703 40.6089 39.6844 40.7318 39.6844 41.2865V41.3728L39.8203 47.4258C39.8337 48.0914 39.9439 48.1895 40.8317 48.2516V48.548C40.0554 48.4741 39.7589 48.4487 39.2908 48.4487C38.8217 48.4487 38.5259 48.4729 37.7495 48.548V48.2516C38.5873 48.2028 38.7723 48.0665 38.7723 47.4882V47.4274L38.6625 41.041L36.6276 46.5386L36.4802 46.9459L36.3076 47.4013L36.1464 47.8713L36.0111 48.2777H35.8261L35.6911 47.8834L35.5178 47.4013L35.3455 46.9211L35.1975 46.4899L33.1766 41.027ZM42.4329 45.0088C42.5564 43.5914 43.0242 42.865 43.8133 42.865C44.6149 42.865 45.0215 43.5551 45.0951 45.0088H42.4329ZM44.0359 48.2385C42.914 48.2385 42.4201 47.3755 42.409 45.4524H46.0826C46.0574 43.5542 45.2807 42.5431 43.8257 42.5431C42.3475 42.5431 41.4224 43.7392 41.4224 45.6377C41.4224 47.536 42.3478 48.6451 43.9372 48.6451C45.1454 48.6451 45.9348 47.8927 46.094 46.6233H45.6004C45.4527 47.671 44.9104 48.2385 44.0359 48.2385ZM46.8159 42.9991V42.7778C47.5181 42.7163 47.9378 42.6425 48.4429 42.4941C48.5047 42.9507 48.5292 43.1472 48.5537 43.5175V43.6535C48.8257 42.9507 49.3546 42.5434 49.9963 42.5434C50.6121 42.5434 51.0688 42.9507 51.0688 43.543C51.0688 43.9006 50.8592 44.1344 50.551 44.1344C50.2676 44.1344 50.0459 43.9615 50.0459 43.7156C50.0459 43.6911 50.0587 43.6427 50.0698 43.5914L50.0943 43.4688V43.3567C50.0943 43.1841 49.9463 43.0612 49.7243 43.0612C49.0842 43.0612 48.6776 43.8376 48.6776 45.0582V47.6341C48.6776 48.1652 48.8002 48.2637 49.5527 48.3003V48.5471C48.8737 48.4862 48.6152 48.4726 48.1837 48.4726C47.7401 48.4726 47.4815 48.4862 46.8038 48.5471V48.3003C47.5551 48.2637 47.6907 48.1652 47.6907 47.6341V43.6045C47.6789 43.0739 47.6165 43.0131 46.9764 43.0001L46.8159 42.9991ZM55.7846 42.4332V44.4678H55.5127C55.2907 43.3943 54.835 42.8768 54.0835 42.8768C53.1581 42.8768 52.6164 43.8761 52.6164 45.6387C52.6164 47.364 53.097 48.2394 54.0459 48.2394C54.8102 48.2394 55.2662 47.6975 55.4143 46.6131H55.9193C55.7588 47.9325 55.0564 48.6471 53.9475 48.6471C52.5174 48.6471 51.5442 47.4386 51.5442 45.6397C51.5442 43.8019 52.5298 42.545 53.9845 42.545C54.5147 42.545 54.8475 42.681 55.2426 43.0631L55.5745 42.4342H55.785L55.7846 42.4332ZM57.8087 45.0088C57.9319 43.5914 58.3997 42.865 59.1891 42.865C59.9903 42.865 60.397 43.5551 60.4702 45.0088H57.8087ZM59.4111 48.2385C58.2892 48.2385 57.7966 47.3755 57.7842 45.4524H61.4571C61.4326 43.5542 60.6553 42.5431 59.2019 42.5431C57.7217 42.5431 56.797 43.7392 56.797 45.6377C56.797 47.536 57.7214 48.6451 59.3127 48.6451C60.5206 48.6451 61.3097 47.8927 61.4692 46.6233H60.9763C60.8285 47.671 60.2862 48.2385 59.4111 48.2385ZM64.8708 48.3133C63.9833 48.3133 63.5152 47.3879 63.5152 45.6263C63.5152 43.8398 63.9464 42.9641 64.8342 42.9641C65.7469 42.9641 66.2153 43.9006 66.2153 45.7139C66.215 47.4255 65.7587 48.3133 64.8708 48.3133ZM67.1882 47.2647V40.1481C66.572 40.313 66.0179 40.4108 65.3278 40.4847V40.6948C66.1042 40.6948 66.2029 40.7811 66.2029 41.4219V43.5787C65.7469 42.8396 65.3893 42.617 64.7234 42.617C63.4047 42.617 62.4796 43.8618 62.4796 45.6368C62.4796 47.4121 63.4159 48.656 64.7603 48.656C65.4628 48.656 65.9437 48.3356 66.2886 47.6459C66.3376 48.1143 66.3376 48.1633 66.4615 48.6311C66.9662 48.4706 67.1764 48.4216 67.9037 48.3356L68.0884 48.3114V48.1019C67.2624 48.0774 67.1882 48.0165 67.1882 47.2647ZM69.5666 45.0088C69.6899 43.5914 70.158 42.865 70.9474 42.865C71.7486 42.865 72.1546 43.5551 72.2285 45.0088H69.5666ZM71.1694 48.2385C70.0468 48.2385 69.5549 47.3755 69.5418 45.4524H73.2151C73.1902 43.5542 72.4139 42.5431 70.9598 42.5431C69.4797 42.5431 68.5556 43.7392 68.5556 45.6377C68.5556 47.536 69.4797 48.6451 71.0706 48.6451C72.2785 48.6451 73.0673 47.8927 73.2268 46.6233H72.7336C72.5868 47.671 72.0435 48.2385 71.1694 48.2385ZM74.2618 48.6579V46.5985L74.5331 46.5867C74.7544 47.7089 75.2725 48.2516 76.1358 48.2516C76.8622 48.2516 77.4052 47.7704 77.4052 47.143C77.4052 46.724 77.1714 46.4409 76.5664 46.1689L76.0983 45.9587L75.5314 45.7002C74.6305 45.2814 74.3475 44.9359 74.3475 44.2207C74.3475 43.2465 75.1111 42.582 76.1967 42.582C76.6775 42.582 77.0358 42.6928 77.4542 42.9749L77.6631 42.4699H77.8851V44.3805H77.601C77.4892 43.394 77.0832 42.9265 76.3072 42.9265C75.654 42.9265 75.1474 43.3704 75.1474 43.9497C75.1474 44.4423 75.3324 44.6034 76.4543 45.0961L76.9724 45.3187C77.9083 45.724 78.2424 46.1196 78.2424 46.8472C78.2424 47.8828 77.416 48.6213 76.2584 48.6213C75.691 48.6213 75.2471 48.4732 74.7789 48.1038L74.4818 48.6579H74.2618ZM85.0978 44.4047C85.7507 44.4047 86.1204 44.5162 86.4044 44.799C86.6882 45.0837 86.849 45.6132 86.849 46.2039C86.849 47.4366 86.2318 48.1277 85.1351 48.1277H84.6915C84.0377 48.1277 83.9272 48.0283 83.9272 47.486V44.4038L85.0978 44.4047ZM83.9263 40.6694H84.9743C86.0099 40.6694 86.4656 41.1757 86.4656 42.3215C86.4656 42.8883 86.3302 43.2959 86.0592 43.6153C85.7879 43.9245 85.4555 44.022 84.7657 44.022H83.9272V40.669H83.9263V40.6694ZM87.5623 42.2966C87.5623 41.6556 87.2916 41.0894 86.8229 40.7308C86.4044 40.4229 85.9242 40.2879 85.1217 40.2879H81.88V40.5958C82.7681 40.6455 82.8907 40.7439 82.8907 41.4094V47.3876C82.8907 48.0535 82.7913 48.1388 81.88 48.214V48.5104H84.9985C85.9102 48.5104 86.4041 48.3987 86.9222 48.0783C87.5381 47.6841 87.9447 46.9319 87.9447 46.1568C87.9447 45.4897 87.661 44.8862 87.1805 44.5178C86.9222 44.3207 86.6506 44.2083 86.2064 44.1229C87.0948 43.7885 87.5623 43.1596 87.5623 42.2966ZM89.957 45.0088C90.0809 43.5914 90.549 42.865 91.3384 42.865C92.139 42.865 92.5463 43.5551 92.6195 45.0088H89.957ZM91.5604 48.2385C90.4385 48.2385 89.9446 47.3755 89.9328 45.4524H93.6067C93.5819 43.5542 92.8049 42.5431 91.3502 42.5431C89.871 42.5431 88.9463 43.7392 88.9463 45.6377C88.9463 47.536 89.871 48.6451 91.4607 48.6451C92.6686 48.6451 93.4577 47.8927 93.6178 46.6233H93.1246C92.9778 47.671 92.4355 48.2385 91.5604 48.2385ZM94.2586 43.0482V42.8396C94.9738 42.7402 95.3929 42.6425 95.8852 42.4695C95.9476 42.7542 95.9848 43.0736 96.0087 43.5421C96.453 42.8759 96.9577 42.581 97.6732 42.581C98.4133 42.581 99.0534 42.9615 99.3008 43.5663C99.4247 43.8627 99.4862 44.2073 99.4862 44.6751V47.6338C99.4862 48.1643 99.6094 48.2627 100.361 48.2993V48.5461C99.7075 48.484 99.4613 48.4722 99.0174 48.4722C98.5604 48.4722 98.3146 48.484 97.6729 48.5461V48.2993C98.3385 48.2758 98.499 48.1519 98.499 47.6589V44.6385C98.499 43.5663 98.1786 43.1341 97.3902 43.1341C96.551 43.1341 96.1078 43.665 96.1078 44.6751V47.6589C96.1078 48.1519 96.2689 48.2758 96.9103 48.2993V48.5461C96.2689 48.484 96.0227 48.4722 95.5785 48.4722C95.147 48.4722 94.8875 48.484 94.2468 48.5461V48.2993C94.998 48.2627 95.1219 48.1643 95.1219 47.6338V43.6408C95.1094 43.1341 95.0356 43.0612 94.4197 43.0612C94.3815 43.0612 94.3207 43.0482 94.2586 43.0482ZM100.84 48.5104L104.18 43.0122H102.664C101.863 43.0122 101.665 43.1841 101.221 44.2939H100.976L101.26 42.6915H105.5L102.147 48.1895H103.588C104.427 48.1895 104.772 47.8573 105.142 46.7348H105.401L105.081 48.5104H100.84Z" fill="#1B1B1B"/>
<path d="M83.5796 28.7777C85.2218 26.0467 86.0874 22.9193 86.0829 19.7325C86.0829 10.0209 78.2096 2.14832 68.4983 2.14832C58.7867 2.14832 50.9141 10.0212 50.9141 19.7325C50.9096 22.9193 51.7753 26.0469 53.418 28.7777L53.354 28.8289L53.4304 28.7993C56.5082 33.9027 62.1042 37.3168 68.4983 37.3168C74.8927 37.3168 80.4881 33.9027 83.5656 28.7993L83.642 28.8289L83.5796 28.7777ZM83.9225 19.7325C83.9255 22.4254 83.2196 25.0716 81.8756 27.4052L70.9975 18.6438L68.7664 4.31629C77.1603 4.45959 83.9225 11.3043 83.9225 19.7325ZM53.076 19.7325C53.076 11.3046 59.8376 4.45991 68.2315 4.31629L66.0004 18.6438L55.1223 27.4052C53.7788 25.0715 53.073 22.4253 53.076 19.7325ZM68.4989 35.1555C63.0261 35.1555 58.2224 32.3022 55.485 28.0048L68.4989 22.9702L81.5129 28.0051C78.7752 32.3022 73.9724 35.1555 68.4989 35.1555Z" fill="#1B1B1B"/>
</svg>
