<svg width="137" height="50" viewBox="0 0 137 50" fill="none" xmlns="http://www.w3.org/2000/svg">
<path d="M35.8753 35.7552C34.5214 35.993 33.1437 36.0643 31.7186 36.2541L27.3717 23.5226V36.8005C26.0178 36.943 24.7827 37.133 23.5 37.323V13H27.1105L32.0511 26.8007V13H35.8753V35.7552ZM43.3575 21.9074C44.8303 21.9074 47.0868 21.8361 48.4406 21.8361V25.6365C46.7541 25.6365 44.7827 25.6365 43.3575 25.7078V31.3611C45.5903 31.2186 47.8231 31.0284 50.0795 30.9571V34.6149L39.5569 35.4464V13H50.0795V16.8005H43.3575V21.9074ZM64.2125 16.8006H60.2696V34.2827C58.9869 34.2827 57.7042 34.2827 56.4693 34.3301V16.8006H52.5263V13H64.2127L64.2125 16.8006ZM70.3882 21.6462H75.5902V25.4465H70.3882V34.069H66.6588V13H77.2767V16.8005H70.3882V21.6462ZM83.4524 30.7434C85.614 30.7908 87.7991 30.9574 89.9132 31.0759V34.829C86.5166 34.615 83.1199 34.4015 79.652 34.3301V13H83.4524V30.7434ZM93.1198 35.0903C94.3312 35.1616 95.6139 35.2329 96.849 35.3752V13H93.1198V35.0903ZM113.5 13L108.678 24.5677L113.5 37.323C112.075 37.133 110.65 36.8717 109.224 36.6341L106.493 29.6034L103.714 36.0643C102.336 35.8265 101.006 35.7552 99.6285 35.5652L104.522 24.4251L100.103 13H104.189L106.683 19.3896L109.343 13H113.5Z" fill="#1B1B1B"/>
</svg>
