<svg width="137" height="50" viewBox="0 0 137 50" fill="none" xmlns="http://www.w3.org/2000/svg">
<path fill-rule="evenodd" clip-rule="evenodd" d="M38.1894 11.996C32.8673 18.2461 27.7645 25.9968 27.7133 31.7901C27.6934 33.9699 28.3893 35.8728 30.0584 37.3142C32.4607 39.39 35.1074 40.122 37.7413 40.1263C41.5902 40.1317 45.4122 38.5788 48.4048 37.3815C53.4446 35.366 109.155 11.173 109.155 11.173C109.693 10.9036 109.592 10.5681 108.919 10.7356C108.648 10.8035 48.2696 27.1661 48.2696 27.1661C47.1259 27.4895 45.9442 27.6587 44.7557 27.6692C40.1155 27.6966 35.9865 25.121 36.0198 19.6933C36.0328 17.5696 36.6829 15.0084 38.1894 11.996Z" fill="#1B1B1B"/>
</svg>
