<svg width="20" height="20" viewBox="0 0 20 20" fill="none" xmlns="http://www.w3.org/2000/svg">
<path fill-rule="evenodd" clip-rule="evenodd" d="M12.5 14L10.2778 17L7.5 14L2 14L2 3L18 3L18 14L12.5 14Z" fill="#1B1B1B"/>
<path d="M10.2778 17L9.72746 17.5096L10.342 18.1733L10.8804 17.4464L10.2778 17ZM12.5 14L12.5 13.25L12.1222 13.25L11.8973 13.5536L12.5 14ZM7.5 14L8.05032 13.4904L7.82769 13.25L7.5 13.25L7.5 14ZM2 14L1.25 14L1.25 14.75L2 14.75L2 14ZM2 3L2 2.25L1.25 2.25L1.25 3L2 3ZM18 3L18.75 3L18.75 2.25L18 2.25L18 3ZM18 14L18 14.75L18.75 14.75L18.75 14L18 14ZM10.8804 17.4464L13.1027 14.4464L11.8973 13.5536L9.67511 16.5536L10.8804 17.4464ZM6.94968 14.5096L9.72746 17.5096L10.8281 16.4904L8.05032 13.4904L6.94968 14.5096ZM7.5 13.25L2 13.25L2 14.75L7.5 14.75L7.5 13.25ZM2.75 14L2.75 3L1.25 3L1.25 14L2.75 14ZM2 3.75L18 3.75L18 2.25L2 2.25L2 3.75ZM17.25 3L17.25 14L18.75 14L18.75 3L17.25 3ZM18 13.25L12.5 13.25L12.5 14.75L18 14.75L18 13.25Z" fill="#1B1B1B"/>
</svg>
