<svg width="21" height="20" viewBox="0 0 21 20" fill="none" xmlns="http://www.w3.org/2000/svg">
<path d="M10.7778 17L10.2275 17.5096L10.842 18.1733L11.3804 17.4464L10.7778 17ZM13 14L13 13.25L12.6222 13.25L12.3973 13.5536L13 14ZM8 14L8.55032 13.4904L8.32769 13.25L8 13.25L8 14ZM2.5 14L1.75 14L1.75 14.75L2.5 14.75L2.5 14ZM2.5 3L2.5 2.25L1.75 2.25L1.75 3L2.5 3ZM18.5 3L19.25 3L19.25 2.25L18.5 2.25L18.5 3ZM18.5 14L18.5 14.75L19.25 14.75L19.25 14L18.5 14ZM11.3804 17.4464L13.6027 14.4464L12.3973 13.5536L10.1751 16.5536L11.3804 17.4464ZM7.44968 14.5096L10.2275 17.5096L11.3281 16.4904L8.55032 13.4904L7.44968 14.5096ZM8 13.25L2.5 13.25L2.5 14.75L8 14.75L8 13.25ZM3.25 14L3.25 3L1.75 3L1.75 14L3.25 14ZM2.5 3.75L18.5 3.75L18.5 2.25L2.5 2.25L2.5 3.75ZM17.75 3L17.75 14L19.25 14L19.25 3L17.75 3ZM18.5 13.25L13 13.25L13 14.75L18.5 14.75L18.5 13.25Z" fill="#1B1B1B"/>
</svg>
