<svg width="14" height="16" viewBox="0 0 14 16" fill="none" xmlns="http://www.w3.org/2000/svg">
<path fill-rule="evenodd" clip-rule="evenodd" d="M8.21802 1.44486H10.05C10.2266 2.37662 10.7925 3.17614 11.5765 3.67566C11.5767 3.67598 11.5771 3.6763 11.5773 3.67662C12.1231 4.02422 12.7738 4.22702 13.4723 4.22702V4.77142L13.4724 6.67222C12.1748 6.67222 10.9724 6.26654 9.99098 5.57806V10.548C9.99098 13.0301 7.92482 15.0493 5.38506 15.0493C4.4037 15.0493 3.49362 14.7469 2.74554 14.2335C2.74514 14.2331 2.74474 14.2326 2.74426 14.2322C1.55722 13.4172 0.779297 12.0699 0.779297 10.5475C0.779297 8.0655 2.84546 6.04614 5.38522 6.04614C5.59594 6.04614 5.8025 6.0631 6.00586 6.09006V6.66942L6.00578 8.58718C5.8093 8.5271 5.60162 8.49214 5.38506 8.49214C4.22522 8.49214 3.28162 9.41446 3.28162 10.548C3.28162 11.3373 3.73986 12.0232 4.40938 12.3675C4.7013 12.5177 5.0329 12.6037 5.38498 12.6037C6.5181 12.6037 7.44242 11.7229 7.4845 10.6253L7.4885 0.824219H9.9909C9.9909 1.03622 10.0119 1.24342 10.05 1.44486H8.21802Z" fill="#1B1B1B"/>
</svg>
