<svg width="137" height="50" viewBox="0 0 137 50" fill="none" xmlns="http://www.w3.org/2000/svg">
<path fill-rule="evenodd" clip-rule="evenodd" d="M92.7854 8.4447C98.8827 10.684 100.765 12.1414 100.765 12.1414C100.513 17.3813 95.8466 22.1049 88.6959 25.2501C95.852 28.3956 100.523 33.1208 100.775 38.3626C100.775 38.3626 98.8921 39.8159 92.7949 42.0571C87.441 44.0264 83.358 44.4765 83.358 44.4765L83.3785 32.8019C83.3785 31.0562 82.6804 29.2724 81.3563 27.696C77.3058 28.6765 72.8287 29.2246 68.1332 29.2257H68.1291C63.4403 29.2246 58.9694 28.678 54.9238 27.7C53.6023 29.2755 52.9056 31.0577 52.9056 32.8019L52.9264 44.4765C52.9264 44.4765 48.8414 44.0264 43.4895 42.0571C37.3942 39.8159 35.5078 38.3626 35.5078 38.3626C35.7607 33.1233 40.4278 28.4 47.5786 25.2545C40.4233 22.1093 35.753 17.3838 35.5 12.1414C35.5 12.1414 37.3826 10.684 43.4795 8.4447C48.8317 6.47541 52.9145 6.02344 52.9145 6.02344L52.8959 17.6999C52.8959 19.4464 53.594 21.2311 54.9183 22.8083C58.9692 21.8273 63.4468 21.2788 68.1429 21.2772C72.832 21.2788 77.3034 21.8258 81.3495 22.8041C82.6719 21.228 83.3691 19.4449 83.3691 17.6999L83.3488 6.02344C83.3488 6.02344 87.4354 6.47568 92.7854 8.4447ZM78.4974 25.249C75.9665 23.6648 72.5118 22.629 68.2767 22.629L68.1426 22.6249H68.1385L68.0064 22.629C63.7654 22.629 60.3074 23.6675 57.7759 25.2551C60.3062 26.8397 63.7602 27.8758 67.9947 27.8758H68.2672C72.5077 27.8758 75.9657 26.8371 78.4974 25.249Z" fill="#1B1B1B"/>
</svg>
